<?xml version="1.0" encoding="UTF-8"?>
<svg id="Layer_1" data-name="Layer 1" xmlns="http://www.w3.org/2000/svg" viewBox="0 0 1080 1080">
  <defs>
    <style>
      .cls-1 {
        fill: #231f20;
        fill-rule: evenodd;
      }
    </style>
  </defs>
  <path class="cls-1" d="M411.16,991.23C184.47,991.23,0,787.61,0,537.36S184.46,83.49,411.16,83.49c115.89,0,226.96,54.4,304.77,149.22,3.84,4.68,4.35,11.31,1.22,16.54-16.8,27.89-25.7,59.97-25.7,92.67,0,76.64,48.66,144.96,121.03,170.02,5.65,1.94,9.54,7.26,9.66,13.25.08,4.05.13,8.1.13,12.15,0,250.25-184.46,453.87-411.16,453.87h.05ZM411.16,112.24c-210.84,0-382.42,190.7-382.42,425.13s171.55,425.13,382.42,425.13,382.42-190.7,382.42-425.13v-1.81c-78.66-31.57-130.86-108.16-130.86-193.62,0-34.48,8.48-68.32,24.69-98.5-71.95-83.52-172.1-131.16-276.24-131.16v-.04Z"/>
  <path class="cls-1" d="M617.57,258.84c-2.79,0-5.57-.8-8.02-2.49-55.45-37.52-146.52-75.37-265.32-42.5-7.64,2.15-15.57-2.36-17.68-10-2.11-7.64,2.36-15.57,10-17.68,129.35-35.79,228.6,5.49,289.08,46.38,6.58,4.43,8.31,13.38,3.84,19.96-2.79,4.09-7.3,6.33-11.9,6.33h0Z"/>
  <path class="cls-1" d="M87.28,453.42c-1.14,0-2.28-.13-3.42-.42-7.72-1.9-12.45-9.66-10.55-17.39,43.59-178.17,205.09-232.94,211.93-235.22,7.55-2.45,15.66,1.65,18.15,9.2,2.49,7.55-1.65,15.66-9.16,18.15-1.52.51-153.31,52.41-193.02,214.72-1.6,6.54-7.47,10.97-13.97,10.97h.04Z"/>
  <path class="cls-1" d="M589.88,319.77c-3.42,0-6.84-1.22-9.58-3.67-.38-.38-40.51-36.04-73.81-43-7.76-1.65-12.74-9.24-11.14-17.01,1.65-7.76,9.2-12.74,17.01-11.14,40.93,8.57,85.29,48.07,87.14,49.75,5.91,5.32,6.37,14.39,1.1,20.3-2.87,3.17-6.79,4.77-10.72,4.77h0Z"/>
  <path class="cls-1" d="M120.11,539.39c-1.01,0-2.07-.13-3.12-.34-7.76-1.73-12.66-9.37-10.93-17.13,5.06-22.87,11.39-44.82,18.78-65.2,2.7-7.47,10.97-11.31,18.4-8.61,7.47,2.7,11.31,10.97,8.61,18.4-7.01,19.24-12.96,39.92-17.72,61.57-1.48,6.71-7.43,11.27-14.01,11.27v.04ZM163.71,419.8c-2.36,0-4.73-.59-6.92-1.77-6.96-3.84-9.5-12.58-5.65-19.54,102.93-187.07,301.01-167.07,303.04-166.81,7.89.89,13.55,8.02,12.66,15.87-.89,7.85-7.93,13.55-15.87,12.66-7.34-.84-181.2-17.72-274.69,152.13-2.62,4.77-7.51,7.43-12.62,7.43l.04.04Z"/>
  <path class="cls-1" d="M607.15,416.28c-4.39,0-8.74-1.98-11.56-5.78-37.31-50.18-85.5-102.63-185.01-89.63-7.89.97-15.07-4.52-16.12-12.41-1.01-7.85,4.52-15.07,12.41-16.12,109.81-14.35,168.67,43,211.8,100.99,4.73,6.37,3.42,15.36-2.95,20.13-2.57,1.9-5.57,2.83-8.57,2.83h0Z"/>
  <path class="cls-1" d="M115.17,675.61c-5.44,0-10.63-3.08-13.04-8.36-3.33-7.22-.21-15.74,7.01-19.07,73.09-33.89,81.74-88.28,91.79-151.25,11.99-75.24,25.57-160.53,166.99-198.93,7.64-2.11,15.57,2.45,17.64,10.09,2.07,7.68-2.45,15.57-10.09,17.64-123.48,33.51-134.49,102.59-146.09,175.73-10.38,65.12-21.1,132.47-108.08,172.81-1.94.93-4.01,1.35-6.03,1.35h-.09Z"/>
  <path class="cls-1" d="M585.5,872.6c-2.66,0-5.36-.76-7.81-2.32-6.67-4.3-8.57-13.21-4.26-19.88,53.43-82.63,96.01-308.95,45.32-394.87-4.01-6.84-1.77-15.66,5.06-19.71,6.84-4.01,15.66-1.77,19.71,5.06,58.15,98.62,12.49,334.69-45.96,425.09-2.74,4.26-7.39,6.58-12.11,6.58l.04.04Z"/>
  <path class="cls-1" d="M156.7,750.13c-4.14,0-8.27-1.77-11.1-5.23-5.06-6.12-4.18-15.19,1.94-20.21,85.33-70.31,96.6-138.41,106.56-198.51,11.44-69.17,22.24-134.49,146.48-167.16,7.68-2.03,15.53,2.57,17.56,10.25,2.03,7.68-2.57,15.53-10.25,17.56-106.22,27.98-114.28,76.64-125.46,144.07-10.21,61.87-22.96,138.84-116.6,216.02-2.7,2.19-5.91,3.29-9.12,3.29v-.08Z"/>
  <path class="cls-1" d="M578.7,679.66c-.97,0-1.94-.08-2.95-.3-7.76-1.6-12.74-9.24-11.14-17.01,14.05-67.27,9.28-165.93-34.35-223.46-21.4-28.19-50.3-43.72-85.96-46.17-7.93-.55-13.88-7.39-13.38-15.32.55-7.93,7.39-13.84,15.32-13.38,44.31,3,80.31,22.32,106.94,57.43,49.08,64.74,54.9,173.23,39.58,246.71-1.39,6.79-7.39,11.44-14.05,11.44v.05Z"/>
  <path class="cls-1" d="M528.4,841.2c-2.11,0-4.26-.46-6.29-1.48-7.13-3.5-10.09-12.11-6.63-19.24,26.76-54.78,40.01-112.88,40.13-113.48,1.73-7.76,9.5-12.62,17.18-10.89,7.72,1.73,12.62,9.41,10.89,17.18-.55,2.49-14.05,61.87-42.37,119.77-2.49,5.11-7.6,8.06-12.91,8.06v.08Z"/>
  <path class="cls-1" d="M441.6,850.19c-3.63,0-7.22-1.35-10.04-4.09-5.7-5.53-5.78-14.64-.25-20.34,53.59-54.99,99.93-187.24,79.29-275.27-8.95-38.15-29.33-63.17-60.6-74.36-33.55-8.52-60.68-4.64-80.64,11.6-25.32,20.55-38.49,60.56-36.21,109.72,1.27,65.96-50.05,120.78-95.29,169.09-10.76,11.48-20.89,22.32-29.84,32.75-5.15,6.03-14.22,6.75-20.26,1.6-6.03-5.15-6.75-14.22-1.6-20.26,9.37-10.93,19.71-22.03,30.68-33.72,41.53-44.35,88.58-94.66,87.57-148.5-2.7-57.98,14.35-106.6,46.84-132.98,18.91-15.4,52.79-30.81,106.56-16.96.38.08.8.21,1.18.38,40.89,14.35,68.41,47.22,79.63,95.12,23.04,98.24-26.76,240.46-86.68,301.9-2.87,2.87-6.58,4.3-10.3,4.3h-.04Z"/>
  <path class="cls-1" d="M327.06,874.33c-3.76,0-7.51-1.48-10.34-4.35-5.53-5.7-5.4-14.81.3-20.34,94.36-91.53,134.03-175.47,128.62-272.11-1.43-25.49-10.38-40.72-18.61-44.48-2.62-1.18-4.64-1.01-6.75.63-5.57,4.3-13.46,20.97-7.43,56.25,16.37,95.88-55.92,170.2-114.03,229.91-11.65,11.94-22.62,23.25-32.62,34.35-5.32,5.91-14.39,6.33-20.3,1.01-5.91-5.32-6.37-14.39-1.06-20.3,10.38-11.48,21.52-22.96,33.34-35.11,56.34-57.9,120.23-123.57,106.3-205.05-6.71-39.25-.04-69.84,18.27-83.89,10.68-8.19,23.89-9.62,36.25-3.97,20.21,9.28,33.42,35.07,35.32,69,7.64,136.99-74.7,233.58-137.32,294.35-2.79,2.7-6.41,4.05-10,4.05l.05.05Z"/>
  <path class="cls-1" d="M871.37,550.57c-115.03,0-208.63-93.6-208.63-208.63s93.6-208.63,208.63-208.63,208.63,93.6,208.63,208.63-93.6,208.63-208.63,208.63ZM871.37,162.07c-99.21,0-179.9,80.69-179.9,179.9s80.69,179.9,179.9,179.9,179.9-80.69,179.9-179.9-80.69-179.9-179.9-179.9Z"/>
  <path class="cls-1" d="M956.69,464.48h-170.66c-7.93,0-14.39-6.46-14.39-14.39v-143.36c0-7.93,6.46-14.39,14.39-14.39h170.62c7.93,0,14.39,6.46,14.39,14.39v143.36c0,7.93-6.46,14.39-14.39,14.39h.04ZM800.42,435.74h141.92v-114.61h-141.92v114.61Z"/>
  <path class="cls-1" d="M930.41,321.12h-118.12c-7.93,0-14.39-6.46-14.39-14.39v-44.52c0-31.19,25.32-54.69,58.87-54.69h29.08c33.59,0,58.91,23.51,58.91,54.69v44.52c0,7.93-6.46,14.39-14.39,14.39h.05ZM826.63,292.38h89.38v-30.17c0-17.81-15.61-25.91-30.13-25.91h-29.08c-14.52,0-30.13,8.1-30.13,25.91v30.17h-.04Z"/>
  <path class="cls-1" d="M871.37,408.31c-7.93,0-14.39-6.46-14.39-14.39v-31.02c0-7.93,6.41-14.39,14.39-14.39s14.39,6.46,14.39,14.39v31.02c0,7.93-6.41,14.39-14.39,14.39Z"/>
</svg>