<?xml version="1.0" encoding="UTF-8"?>
<svg id="Layer_1" data-name="Layer 1" xmlns="http://www.w3.org/2000/svg" viewBox="0 0 1080 1080">
  <defs>
    <style>
      .cls-1 {
        fill: #231f20;
      }
    </style>
  </defs>
  <path class="cls-1" d="M26.15,1073c10,0,16.67-6.67,16.67-16.67v-43.33h30c36.67,0,66.67-30,66.67-66.67v-45h83.33c10,0,16.67-6.67,16.67-16.67s-6.67-16.67-16.67-16.67h-83.33v-35h208.33c-1.67,5-1.67,11.67-1.67,16.67,0,6.67,0,11.67,1.67,16.67h-61.67c-10,0-16.67,6.67-16.67,16.67s6.67,16.67,16.67,16.67h76.67c15,18.33,38.33,30,63.33,30,45,0,81.67-36.67,81.67-81.67,0-8.33-1.67-16.67-5-25l90-135,70,18.33c8.33,1.67,18.33-3.33,20-11.67l20-76.67,121.67,31.67c8.33,1.67,18.33-3.33,20-11.67l8.33-31.67,105,26.67c8.33,1.67,18.33-3.33,20-11.67l36.67-143.33c1.67-8.33-3.33-18.33-11.67-20h-1.67c36.67-28.33,63.33-68.33,75-115,1.67-8.33-3.33-18.33-11.67-20l-215-55c-8.33-1.67-18.33,3.33-20,11.67-1.67,8.33,3.33,18.33,11.67,20l198.33,50c-30,86.67-123.33,140-218.33,116.67-123.33-31.67-375-96.67-578.33-148.33l33.33-130c5-16.67,21.67-26.67,38.33-23.33l461.67,118.33c8.33,1.67,18.33-3.33,20-11.67,1.67-8.33-3.33-18.33-11.67-20l-461.67-118.33c-35-8.33-70,11.67-80,46.67l-8.33,33.33c-68.33-40-155,5-161.67,83.33l-10,101.67c-1.67,23.33,3.33,46.67,16.67,66.67l31.67,50c16.67,28.33,15,65-6.67,88.33l-61.67,71.67v-35c0-10-6.67-16.67-16.67-16.67s-16.67,6.67-16.67,16.67v416.67c0,10,6.67,16.67,16.67,16.67ZM72.81,979.67h-30v-265h30c18.33,0,33.33,15,33.33,33.33v198.33c0,18.33-15,33.33-33.33,33.33ZM427.81,899.67c-26.67,0-48.33-21.67-48.33-48.33s21.67-48.33,48.33-48.33,48.33,21.67,48.33,48.33-21.67,48.33-48.33,48.33ZM486.15,794.67c-8.33-8.33-16.67-15-28.33-18.33l68.33-103.33,33.33,8.33-73.33,113.33ZM672.81,613l-16.67,60c-3.33-1.67-196.67-50-193.33-50l15-60c21.67,5-70-18.33,195,50ZM951.15,598l-88.33-23.33c0-1.67,18.33-75,18.33-70,28.33-1.67,56.67-10,81.67-21.67l16.67,5-28.33,110ZM846.15,504.67l-28.33,110c-210-53.33-366.67-93.33-575-146.67l28.33-108.33c570,145,538.33,141.67,575,145ZM129.48,626.33c31.67-35,35-88.33,10-128.33l-31.67-50c-8.33-13.33-13.33-30-11.67-46.67l10-101.67c5-56.67,70-86.67,116.67-55l3.33,1.67-20,80c-1.67,8.33,3.33,18.33,11.67,20l20,5-31.67,123.33c-1.67,8.33,3.33,18.33,11.67,20l228.33,58.33-20,76.67c-1.67,8.33,3.33,18.33,11.67,20l53.33,13.33-71.67,105c-23.33,1.67-43.33,13.33-56.67,30h-223.33v-51.67c0-35-26.67-61.67-58.33-66.67l48.33-53.33Z"/>
  <path class="cls-1" d="M292.81,244.67h0c-6.67,26.67,10,53.33,36.67,61.67,26.67,6.67,53.33-10,61.67-36.67,6.67-26.67-10-53.33-36.67-60-28.33-6.67-55,8.33-61.67,35ZM356.15,261.33c-1.67,8.33-11.67,15-20,11.67-8.33-1.67-15-11.67-11.67-20h0c1.67-8.33,11.67-15,20-11.67,8.33,3.33,15,11.67,11.67,20Z"/>
  <path class="cls-1" d="M417.81,278h0c-6.67,26.67,10,53.33,36.67,61.67,26.67,6.67,53.33-10,61.67-36.67,6.67-26.67-10-53.33-36.67-60-28.33-8.33-55,8.33-61.67,35ZM482.81,294.67c-1.67,8.33-11.67,15-20,11.67-8.33-1.67-15-11.67-11.67-20,1.67-8.33,11.67-15,20-11.67,8.33,1.67,13.33,10,11.67,20Z"/>
  <path class="cls-1" d="M604.48,273c-26.67-6.67-53.33,10-60,36.67-6.67,26.67,10,53.33,36.67,61.67,26.67,6.67,53.33-8.33,61.67-36.67,5-26.67-11.67-53.33-38.33-61.67ZM607.81,326.33c-1.67,8.33-11.67,15-20,11.67-10-3.33-13.33-11.67-11.67-20,1.67-10,11.67-15,20-13.33,8.33,3.33,13.33,13.33,11.67,21.67Z"/>
  <path class="cls-1" d="M401.15,473c291.67,75,275,71.67,278.33,71.67,6.67,0,15-5,16.67-13.33,1.67-8.33-3.33-18.33-11.67-20l-275-70c-8.33-1.67-18.33,3.33-20,11.67-1.67,8.33,3.33,18.33,11.67,20Z"/>
  <path class="cls-1" d="M1059.48,244.67c10,0,16.67-6.67,16.67-16.67,0-121.67-100-221.67-221.67-221.67-10,0-16.67,6.67-16.67,16.67s6.67,16.67,16.67,16.67c103.33,0,188.33,85,188.33,188.33,0,10,6.67,16.67,16.67,16.67Z"/>
  <path class="cls-1" d="M961.15,228c0,10,6.67,16.67,16.67,16.67s16.67-6.67,16.67-16.67c0-76.67-63.33-140-140-140-10,0-16.67,6.67-16.67,16.67s6.67,16.67,16.67,16.67c58.33,0,106.67,48.33,106.67,106.67Z"/>
  <path class="cls-1" d="M837.81,186.33c0,10,6.67,16.67,16.67,16.67,13.33,0,25,11.67,25,25,0,10,6.67,16.67,16.67,16.67s16.67-6.67,16.67-16.67c0-31.67-26.67-58.33-58.33-58.33-10,0-16.67,8.33-16.67,16.67Z"/>
</svg>