<?xml version="1.0" encoding="UTF-8"?>
<svg id="Layer_1" data-name="Layer 1" xmlns="http://www.w3.org/2000/svg" viewBox="0 0 1080 876">
  <defs>
    <style>
      .cls-1 {
        fill-rule: evenodd;
      }
    </style>
  </defs>
  <path class="cls-1" d="M235.57,187.11h131.62c5.69,0,10.32,4.63,10.32,10.32v37.23h415.13c5.69,0,10.32,4.59,10.32,10.32v95.69h42.5c5.69,0,10.32,4.59,10.32,10.32v75.39c0,5.69-4.63,10.32-10.32,10.32h-42.5l-.08,160.05h42.5c5.69,0,10.32,4.63,10.32,10.32v75.39c0,5.69-4.63,10.32-10.32,10.32h-42.5v95.69c0,5.69-4.59,10.32-10.32,10.32l-415.08-.04v26.91h567.76V243.13c0-2.78,1.1-5.31,2.91-7.16l38.45-45.19c4.17-4.93,11.71-4.76,15.79.13l38.79,45.62c1.64,1.94,2.44,4.3,2.44,6.65h.04v592.86c0,5.64-5.05,9.43-6.99,9.77l-3.29.55-988.78-.08c-13.56,0-13.56-20.6,0-20.6h180.65v-31.51h-110.3c-5.69,0-10.32-4.63-10.32-10.32l.04-328.87h-47.05c-12.85,0-23.29-10.45-23.29-23.29v-107.95c0-11.75,8.89-21.65,20.43-23.12v-17.94c0-33.19,27.04-60.23,60.23-60.23s60.23,27.04,60.23,60.23v17.94c11.5,1.43,20.43,11.37,20.43,23.12v107.95c0,6.28-2.65,12.34-6.87,16.43l.04.04c-4.21,4.21-10.02,6.82-16.47,6.82h-47.09v318.59h99.99V197.38c0-5.69,4.63-10.28,10.32-10.28h0ZM802.87,617.35v54.8h32.22v-54.8h-32.22ZM802.87,361.22v54.8h32.22v-54.8h-32.22ZM274.7,346.02c-5.69,0-10.32,4.63-10.32,10.32v155.63c0,5.69,4.63,10.32,10.32,10.32h51.13c5.69,0,10.32-4.59,10.32-10.32v-155.63c0-5.69-4.59-10.32-10.32-10.32h-51.13ZM315.56,366.62h-30.54v135.03h30.54l-.04-135.03h.04ZM274.7,267.34c-5.69,0-10.32,4.59-10.32,10.32l.04,44.27c0,5.69,4.63,10.32,10.32,10.32h51.13c5.69,0,10.32-4.63,10.32-10.32v-44.27c0-5.69-4.59-10.32-10.32-10.32h-51.17ZM315.56,287.94h-30.54v23.67h30.54l-.04-23.67h.04ZM245.85,783.85v41.87h111.03V207.7h-111.03v576.14ZM206.26,186.09c4.17-17.1,22.91-27.67,39.72-22.36,12.89,4.09,19.12-15.54,6.19-19.63-28.09-8.89-58.92,8.51-65.87,37.19-3.16,13.1,16.81,17.9,19.96,4.8h0ZM152.9,164.99c-3.16,13.14-23.12,8.3-19.96-4.84,6.36-26.32,23.75-49.07,47.72-62.88,24.64-14.24,53.79-17.69,80.32-9.31,12.93,4.09,6.7,23.71-6.19,19.63-21.1-6.65-44.27-3.83-63.81,7.46v-.04c-19.12,11.03-32.98,28.98-38.08,50h0ZM99.49,147.34c-3.16,13.14-23.12,8.3-19.96-4.84C99.87,58.64,190.55,7.47,272.81,33.49c12.93,4.09,6.7,23.71-6.19,19.63-71.01-22.45-149.56,21.9-167.13,94.22h0ZM93.38,388.05h43.21c13.56,0,13.56-20.6,0-20.6h-43.21c-13.56,0-13.56,20.6,0,20.6ZM154.62,300.48c0-17.69,2.06-32.05-11.62-45.74-25.06-25.06-67.64-6.95-67.64,28.01v17.73h79.27ZM57.62,434.38h114.74c.72,0,1.39-.29,1.9-.8l.04.04c.46-.51.76-1.18.76-1.9v-107.95c0-1.52-1.18-2.7-2.7-2.7H57.62c-1.52,0-2.7,1.18-2.7,2.7v107.95c0,1.43,1.22,2.65,2.7,2.65ZM472.11,255.2v522.95h89.67V255.2h-89.67ZM451.51,778.15V255.2h-74.05v522.95h74.05ZM582.38,255.2v522.95h89.67l-.04-522.95h-89.63ZM692.65,255.2v522.95h89.67l-.04-522.95h-89.63ZM1023,825.66V246.86l-28.6-33.61-28.6,33.61v578.8h57.2Z"/>
</svg>