<?xml version="1.0" encoding="UTF-8"?>
<svg id="Layer_1" data-name="Layer 1" xmlns="http://www.w3.org/2000/svg" viewBox="0 0 1080 1080">
  <defs>
    <style>
      .cls-1 {
        fill: #231f20;
      }
    </style>
  </defs>
  <g>
    <path class="cls-1" d="M39.61,507.22h103.22v519.53c0,9.53,7.72,17.25,17.25,17.25h759.8c9.53,0,17.25-7.72,17.25-17.25V507.22h103.22c7.2,0,13.63-4.49,16.18-11.22,2.5-6.73.6-14.32-4.83-19.07L551.34,40.27c-6.51-5.69-16.18-5.69-22.69,0L28.29,476.93c-5.44,4.74-7.33,12.34-4.83,19.07,2.5,6.73,8.97,11.22,16.18,11.22h-.01ZM539.99,76.16l454.35,396.5h-74.45c-9.53,0-17.25,7.72-17.25,17.25v519.53H177.34V489.92c0-9.53-7.72-17.25-17.25-17.25h-74.45L539.99,76.16Z"/>
    <path class="cls-1" d="M572.82,507.09c4.4,0,8.84-1.68,12.21-5.05,6.73-6.73,6.73-17.64,0-24.41-24.8-24.85-65.22-24.85-90.07,0-6.73,6.73-6.73,17.64,0,24.41,6.73,6.73,17.64,6.73,24.41,0,11.39-11.39,29.85-11.39,41.24,0,3.36,3.36,7.76,5.05,12.21,5.05h0Z"/>
    <path class="cls-1" d="M621.3,458.61c4.4,0,8.84-1.68,12.21-5.05,6.73-6.73,6.73-17.64,0-24.41-24.98-24.98-58.19-38.74-93.52-38.74s-68.54,13.76-93.52,38.74c-6.73,6.73-6.73,17.69,0,24.41,6.73,6.73,17.64,6.73,24.41,0,18.46-18.46,43.01-28.64,69.1-28.64s50.64,10.18,69.1,28.64c3.36,3.36,7.76,5.05,12.21,5.05h0Z"/>
    <path class="cls-1" d="M415.15,397.83c68.85-68.8,180.83-68.8,249.67,0,3.36,3.36,7.76,5.05,12.21,5.05s8.84-1.68,12.21-5.05c6.73-6.73,6.73-17.64,0-24.41-82.3-82.3-216.2-82.3-298.45,0-6.73,6.73-6.73,17.64,0,24.41,6.73,6.73,17.64,6.73,24.41,0h-.04Z"/>
    <path class="cls-1" d="M611.08,603.97c-8.45-4.4-18.89-1.08-23.25,7.42-4.4,8.45-1.08,18.89,7.42,23.25,39.12,20.27,63.45,60.48,63.45,104.95,0,65.44-53.23,118.67-118.67,118.67s-118.67-53.23-118.67-118.67c0-44.47,24.33-84.68,63.45-104.95,8.45-4.4,11.78-14.8,7.42-23.25-4.36-8.46-14.75-11.78-23.25-7.42-50.64,26.23-82.09,78.16-82.09,135.57,0,84.46,68.72,153.17,153.17,153.17s153.17-68.72,153.17-153.17c0-57.46-31.45-109.39-82.09-135.57h-.09Z"/>
  </g>
  <path class="cls-1" d="M522.74,597.8v108.4c0,9.53,7.72,17.25,17.25,17.25s17.25-7.72,17.25-17.25v-108.4c0-9.53-7.72-17.25-17.25-17.25s-17.25,7.72-17.25,17.25Z"/>
</svg>