<?xml version="1.0" encoding="UTF-8"?>
<svg id="Layer_1" data-name="Layer 1" xmlns="http://www.w3.org/2000/svg" viewBox="0 0 1080 1080">
  <defs>
    <style>
      .cls-1 {
        fill: #231f20;
        fill-rule: evenodd;
      }
    </style>
  </defs>
  <path class="cls-1" d="M388.16,887.06c-22.39,0-36.63,11.93-42.77,27.19-2.45,6.14-3.69,12.91-3.69,19.76s1.25,13.57,3.69,19.72c6.14,15.27,20.38,27.19,42.77,27.19h285.2c22.39,0,36.63-11.93,42.77-27.19,2.45-6.14,3.69-12.91,3.69-19.72s-1.25-13.62-3.69-19.76c-6.14-15.27-20.38-27.19-42.77-27.19h-285.2ZM383.13,348.13c-5.43,5.47-14.29,5.52-19.81.09-5.47-5.43-5.52-14.33-.04-19.81l.98-.98c45.57-45.75,105.79-68.76,166.14-69.03,60.31-.27,120.75,22.16,166.72,67.47l.04.09.98.93c5.47,5.43,5.47,14.29.04,19.81-5.43,5.47-14.29,5.47-19.81.04l-.89-.89v-.04c-40.55-39.92-93.82-59.73-147-59.51-53.14.27-106.24,20.56-146.39,60.84l-.98.98ZM431.24,400.96c2.31-2.49,4.36-4.58,6.14-6.28l.04-.04.04.04c26.04-24.66,59.68-37.03,93.42-37.21,33.74-.18,67.52,11.93,93.78,36.36,2.18,2,4.23,4.09,6.28,6.19,5.3,5.61,14.15,5.83,19.81.49,5.61-5.34,5.83-14.2.49-19.81-2.45-2.58-4.94-5.07-7.48-7.39-31.64-29.42-72.37-44.02-112.96-43.8-40.63.18-81.22,15.18-112.6,44.86l.04.04c-2.85,2.71-5.34,5.21-7.43,7.43-5.25,5.65-4.94,14.55.71,19.81,5.56,5.25,14.46,4.94,19.72-.71h0ZM479.97,453.52c-4.76,6.1-13.62,7.17-19.67,2.36-6.1-4.76-7.17-13.57-2.36-19.67,4.45-5.65,9.44-10.64,14.87-15,16.87-13.57,37.56-20.38,58.26-20.52,20.7-.09,41.44,6.54,58.44,19.89,5.39,4.23,10.41,9.21,15,14.87,4.85,6.01,3.87,14.82-2.14,19.67-6.01,4.85-14.82,3.87-19.67-2.14-3.16-3.92-6.68-7.39-10.46-10.37-11.93-9.39-26.48-14.06-40.99-13.98-14.51.09-29.02,4.85-40.81,14.33-3.78,3.03-7.3,6.54-10.46,10.55h0ZM516.74,14.02c0-7.74,6.28-14.02,14.02-14.02s14.02,6.28,14.02,14.06v78.38c0,7.74-6.28,14.06-14.02,14.06s-14.02-6.28-14.02-14.06V14.02ZM735.44,65.16c3.83-6.68,12.37-8.99,19.05-5.16,6.68,3.83,8.99,12.37,5.16,19.09l-38.45,66.58c-3.83,6.68-12.37,8.99-19.09,5.16-6.68-3.83-8.99-12.37-5.16-19.09l38.5-66.58ZM899.22,218.71c6.68-3.87,15.27-1.56,19.14,5.12,3.87,6.68,1.6,15.27-5.12,19.14l-63.11,36.45c-6.68,3.87-15.27,1.6-19.14-5.12-3.87-6.68-1.6-15.27,5.12-19.14l63.11-36.45ZM964.34,433.58c7.74,0,14.02,6.28,14.02,14.02s-6.28,14.06-14.02,14.06h-67.38c-7.74,0-14.02-6.28-14.02-14.06s6.28-14.02,14.02-14.02h67.38ZM913.24,652.29c6.68,3.87,8.99,12.46,5.12,19.14-3.87,6.68-12.42,8.99-19.14,5.12l-53.41-30.84c-6.68-3.87-8.99-12.46-5.12-19.14,3.87-6.68,12.46-8.99,19.14-5.12l53.41,30.84ZM201.67,621.44c6.68-3.87,15.27-1.6,19.14,5.12,3.87,6.68,1.6,15.27-5.12,19.14l-53.41,30.84c-6.68,3.87-15.27,1.6-19.14-5.12-3.87-6.68-1.6-15.27,5.12-19.14l53.41-30.84ZM164.55,433.58c7.74,0,14.02,6.28,14.02,14.02s-6.28,14.06-14.02,14.06h-67.38c-7.74,0-14.02-6.28-14.02-14.06s6.28-14.02,14.02-14.02h67.38ZM225.39,255.16c6.68,3.87,8.99,12.42,5.12,19.14-3.87,6.68-12.42,8.99-19.14,5.12l-63.11-36.45c-6.68-3.87-8.99-12.46-5.12-19.14,3.87-6.68,12.42-8.99,19.14-5.12l63.11,36.45ZM364.52,131.7c3.87,6.68,1.6,15.27-5.12,19.14-6.68,3.87-15.27,1.6-19.14-5.12l-38.45-66.58c-3.87-6.68-1.6-15.27,5.12-19.14,6.68-3.87,15.27-1.6,19.14,5.12l38.45,66.58ZM634.81,1009.06c-9.3,24.79-25.68,43.08-45.44,54.92-17.8,10.68-38.23,16.02-58.61,16.02s-40.81-5.34-58.61-16.02c-19.72-11.84-36.1-30.18-45.4-54.92h-38.54c-35.69,0-58.61-19.67-68.76-44.86-3.87-9.61-5.79-19.89-5.79-30.13s1.91-20.56,5.79-30.18c2.85-7.17,6.76-13.84,11.7-19.81-22.88-6.41-38.23-22.52-46.02-41.88-3.83-9.61-5.79-19.89-5.79-30.18s1.91-20.56,5.79-30.18c6.81-16.91,19.4-31.38,37.79-39.03-3.47-5.07-8.01-10.64-13.75-17.71-13.8-16.96-33.96-41.7-63.38-88.17-16.78-26.44-29.95-55.46-38.85-86.3-8.63-29.91-13.31-61.42-13.31-93.86,0-93.11,37.74-177.4,98.76-238.42,60.97-60.93,145.27-98.67,238.38-98.67s177.4,37.79,238.42,98.76c61.02,61.02,98.76,145.32,98.76,238.42,0,32.13-4.54,63.24-12.95,92.75-8.68,30.44-21.59,59.15-37.96,85.45-30.66,49.18-51.4,73.93-65.42,90.57-5.7,6.77-10.15,12.06-13.53,17.05,18.65,7.57,31.42,22.12,38.32,39.21,3.87,9.61,5.79,19.94,5.79,30.18s-1.91,20.56-5.79,30.18c-7.79,19.36-23.14,35.47-46.02,41.88,4.94,5.92,8.86,12.64,11.7,19.81,3.87,9.61,5.79,19.89,5.79,30.18s-1.91,20.52-5.79,30.13c-10.1,25.19-33.07,44.86-68.76,44.86l-38.5-.04ZM457.32,1009.06c7.12,13.53,17.36,23.81,29.15,30.93,13.31,8.01,28.75,11.97,44.24,11.97s30.98-4.01,44.24-11.97c11.84-7.08,22.03-17.4,29.15-30.93h-146.78ZM708.92,737.03c4.81-9.79,11.48-17.76,21.23-29.42,13.49-16.07,33.47-39.88,63.11-87.37,15.04-24.08,26.84-50.38,34.8-78.33,7.7-27.02,11.84-55.54,11.84-85.05,0-85.36-34.58-162.67-90.53-218.58-55.95-55.95-133.25-90.57-218.62-90.57s-162.67,34.63-218.58,90.53c-55.95,55.95-90.53,133.2-90.53,218.58,0,30,4.23,58.88,12.11,86.08,8.14,28.22,20.25,54.83,35.65,79.13,28.53,45.04,48.07,69.03,61.42,85.41,9.66,11.84,16.33,20.07,21.23,29.55.62-.04,1.2-.04,1.82-.04h162.9l-.04-143.26c-10.24-2.58-19.45-7.92-26.66-15.18-10.41-10.41-16.87-24.83-16.87-40.72s6.45-30.31,16.87-40.72c10.41-10.41,24.83-16.87,40.72-16.87s30.31,6.45,40.72,16.87c10.41,10.41,16.87,24.79,16.87,40.72s-6.45,30.31-16.87,40.72c-7.25,7.25-16.42,12.6-26.66,15.18v143.36h164.06ZM551.63,516.95c-5.34-5.34-12.73-8.63-20.87-8.63s-15.53,3.29-20.87,8.63c-5.34,5.34-8.63,12.73-8.63,20.87s3.29,15.53,8.63,20.87c4.36,4.32,10.06,7.34,16.38,8.32,1.42-.49,2.94-.76,4.5-.76s3.07.27,4.5.76c6.36-.98,12.06-4.01,16.38-8.32,5.34-5.34,8.63-12.73,8.63-20.87s-3.29-15.53-8.63-20.87h0ZM353.85,765.12c-22.39,0-36.63,11.93-42.77,27.19-2.45,6.14-3.69,12.91-3.69,19.72s1.25,13.62,3.69,19.76c6.14,15.27,20.38,27.19,42.77,27.19h353.83c22.39,0,36.63-11.93,42.77-27.19,2.45-6.14,3.69-12.91,3.69-19.76s-1.25-13.57-3.69-19.72c-6.14-15.27-20.38-27.19-42.77-27.19h-353.83Z"/>
</svg>