<svg xmlns="http://www.w3.org/2000/svg" version="1.1" xmlns:xlink="http://www.w3.org/1999/xlink" width="612.12" height="612.12"><svg id="SvgjsSvg1027" data-name="Layer 1" xmlns="http://www.w3.org/2000/svg" viewBox="0 0 612.12 612.12">
  <defs>
    <style>
      .cls-1 {
        fill: #010101;
      }

      .cls-2 {
        fill: none;
        stroke: #010101;
        stroke-miterlimit: 10;
        stroke-width: 8px;
      }
    </style>
  </defs>
  <path class="cls-1" d="M102.68,363.99c-1.47,0-2.29-.82-2.62-2.29l-5.24-20.64h-30.79l-5.08,20.64c-.33,1.47-1.15,2.29-2.62,2.29h-16.05c-1.8,0-2.62-.98-2.13-2.78l27.19-109.58c.33-1.64,1.31-2.29,2.78-2.29h22.77c1.47,0,2.46.66,2.78,2.29l27.19,109.58c.49,1.8-.33,2.78-2.29,2.78h-15.89ZM79.42,277.5l-10.32,44.55h20.64l-10.32-44.55Z"></path>
  <path class="cls-1" d="M201.45,249.33c2.62,0,3.6,1.64,2.46,3.93l-41.77,90.58h35.87c1.64,0,2.62.82,2.62,2.62v14.74c0,1.64-.98,2.62-2.62,2.78h-64.21c-2.62,0-3.6-1.64-2.46-3.93l41.77-89.11h-33.74c-1.64,0-2.62-.98-2.62-2.62v-16.22c0-1.8.98-2.62,2.62-2.78h62.08Z"></path>
  <path class="cls-1" d="M281.39,249.33c2.62,0,3.6,1.64,2.46,3.93l-41.77,90.58h35.87c1.64,0,2.62.82,2.62,2.62v14.74c0,1.64-.98,2.62-2.62,2.78h-64.21c-2.62,0-3.6-1.64-2.46-3.93l41.77-89.11h-33.74c-1.64,0-2.62-.98-2.62-2.62v-16.22c0-1.8.98-2.62,2.62-2.78h62.08Z"></path>
  <path class="cls-1" d="M357.06,363.99c-1.47,0-2.29-.82-2.62-2.29l-5.24-20.64h-30.79l-5.08,20.64c-.33,1.47-1.15,2.29-2.62,2.29h-16.05c-1.8,0-2.62-.98-2.13-2.78l27.19-109.58c.33-1.64,1.31-2.29,2.78-2.29h22.77c1.47,0,2.46.66,2.78,2.29l27.19,109.58c.49,1.8-.33,2.78-2.29,2.78h-15.89ZM333.8,277.5l-10.32,44.55h20.64l-10.32-44.55Z"></path>
  <path class="cls-1" d="M475.33,249.33c2.13,0,3.28,1.15,3.28,3.28v108.11c0,2.13-1.15,3.28-3.28,3.28h-15.23c-2.13,0-3.28-1.15-3.28-3.28v-64.37h-1.15l-15.4,64.87c-.49,1.8-1.64,2.78-3.6,2.78h-9.66c-1.97,0-3.11-.98-3.6-2.78l-15.4-64.87h-1.15v64.37c0,2.13-1.15,3.28-3.28,3.28h-15.07c-2.13,0-3.28-1.15-3.28-3.28v-108.11c0-2.13,1.15-3.28,3.28-3.28h21.62c1.97,0,3.11.98,3.6,2.78l18.18,73.06,18.18-73.06c.49-1.8,1.64-2.78,3.6-2.78h21.62Z"></path>
  <path class="cls-1" d="M536.92,249.33c15.4,0,23.59,8.19,23.59,23.59v10.81c0,1.64-.82,2.62-2.62,2.62h-16.54c-1.64,0-2.62-.98-2.62-2.62v-6.88c0-4.26-2.13-6.55-6.55-6.55h-9.01c-4.1,0-6.55,2.29-6.55,6.55v13.92l39.64,12.78c2.78.98,4.26,2.95,4.26,6.06v30.79c0,15.4-8.19,23.59-23.59,23.59h-18.35c-15.23,0-23.59-8.19-23.59-23.59v-10.65c0-1.8.98-2.62,2.62-2.62h16.54c1.8,0,2.62.82,2.62,2.62v6.88c0,4.42,2.46,6.55,6.55,6.55h8.85c4.26,0,6.55-2.13,6.55-6.55v-16.54l-39.31-12.78c-2.95-.98-4.42-2.95-4.42-6.06v-28.34c0-15.4,8.35-23.59,23.59-23.59h18.35Z"></path>
  <path class="cls-2" d="M147.32,249.53c38.84-43.84,95.56-71.47,158.74-71.47s119.9,27.64,158.74,71.48"></path>
  <path class="cls-2" d="M516.47,363.99c1.05,8.54,1.59,17.24,1.59,26.07,0,117.08-94.92,212-212,212s-212-94.92-212-212c0-8.76.53-17.39,1.56-25.88"></path>
  <path class="cls-2" d="M186.88,249.34c26.11-87.5,107.19-151.28,203.18-151.28,117.08,0,212,94.92,212,212s-94.92,212-212,212c-98.45,0-181.22-67.1-205.08-158.06"></path>
  <path class="cls-2" d="M466.19,365.47c-38.75,42.16-94.35,68.59-156.13,68.59s-118.65-27.03-157.45-70.04"></path>
  <path class="cls-2" d="M99.67,248.31c-1.06-8.6-1.61-17.36-1.61-26.25,0-117.08,94.92-212,212-212s212,94.92,212,212c0,9.25-.59,18.35-1.74,27.29"></path>
  <path class="cls-2" d="M424.87,364c-26.5,86.87-107.27,150.06-202.81,150.06-117.08,0-212-94.92-212-212S104.98,90.06,222.06,90.06c98.88,0,181.95,67.7,205.39,159.28"></path>
</svg><style>@media (prefers-color-scheme: light) { :root { filter: none; } }
@media (prefers-color-scheme: dark) { :root { filter: none; } }
</style></svg>