<?xml version="1.0" encoding="UTF-8"?>
<svg id="Layer_1" data-name="Layer 1" xmlns="http://www.w3.org/2000/svg" viewBox="0 0 1080 1080">
  <defs>
    <style>
      .cls-1 {
        fill: currentColor;
        stroke: currentColor;
        fill-rule: evenodd;
      }
    </style>
  </defs>
  <path class="cls-1" d="M282.6,232.58h162.38c7.02,0,12.73,5.71,12.73,12.73v45.93h512.14c7.02,0,12.73,5.66,12.73,12.73v118.05h52.43c7.02,0,12.73,5.66,12.73,12.73v93.01c0,7.02-5.71,12.73-12.73,12.73h-52.43l-.1,197.45h52.43c7.02,0,12.73,5.71,12.73,12.73v93.01c0,7.02-5.71,12.73-12.73,12.73h-52.43v118.05c0,7.02-5.66,12.73-12.73,12.73l-512.08-.05v33.2h700.44V301.69c0-3.43,1.36-6.55,3.59-8.83l47.44-55.75c5.14-6.08,14.45-5.87,19.48.16l47.85,56.28c2.02,2.39,3.01,5.3,3.01,8.2h.05v731.4c0,6.96-6.23,11.63-8.62,12.05l-4.06.68-1219.84-.1c-16.73,0-16.73-25.41,0-25.41h222.87v-38.87h-136.08c-7.02,0-12.73-5.71-12.73-12.73l.05-405.72h-58.04c-15.85,0-28.73-12.89-28.73-28.73v-133.18c0-14.5,10.97-26.71,25.2-28.52v-22.13c0-40.95,33.36-74.3,74.3-74.3s74.3,33.36,74.3,74.3v22.13c14.19,1.76,25.2,14.03,25.2,28.52v133.18c0,7.75-3.27,15.22-8.48,20.27l.05.05c-5.19,5.19-12.36,8.41-20.32,8.41h-58.09v393.04h123.36V245.25c0-7.02,5.71-12.68,12.73-12.68h0ZM982.47,763.36v67.61h39.75v-67.61h-39.75ZM982.47,447.38v67.61h39.75v-67.61h-39.75ZM330.87,428.63c-7.02,0-12.73,5.71-12.73,12.73v192c0,7.02,5.71,12.73,12.73,12.73h63.08c7.02,0,12.73-5.66,12.73-12.73v-192c0-7.02-5.66-12.73-12.73-12.73h-63.08ZM381.28,454.04h-37.68v166.58h37.68l-.05-166.58h.05ZM330.87,331.56c-7.02,0-12.73,5.66-12.73,12.73l.05,54.62c0,7.02,5.71,12.73,12.73,12.73h63.08c7.02,0,12.73-5.71,12.73-12.73v-54.62c0-7.02-5.66-12.73-12.73-12.73h-63.13ZM381.28,356.97h-37.68v29.2h37.68l-.05-29.2h.05ZM295.28,968.77v51.65h136.98V257.98h-136.98v710.78h0ZM246.44,231.32c5.14-21.1,28.26-34.14,49-27.59,15.9,5.05,23.59-19.17,7.64-24.22-34.65-10.97-72.69,10.5-81.26,45.88-3.9,16.16,20.74,22.08,24.62,5.92h0ZM180.61,205.29c-3.9,16.21-28.52,10.24-24.62-5.97,7.85-32.47,29.3-60.54,58.87-77.57,30.4-17.57,66.36-21.82,99.09-11.49,15.95,5.05,8.27,29.25-7.64,24.22-26.03-8.2-54.62-4.73-78.72,9.2v-.05c-23.59,13.61-40.69,35.75-46.98,61.68h0v-.02ZM114.72,183.52c-3.9,16.21-28.52,10.24-24.62-5.97C115.19,74.09,227.06,10.96,328.54,43.06c15.95,5.05,8.27,29.25-7.64,24.22-87.6-27.7-184.51,27.02-206.19,116.24h0ZM107.18,480.48h53.31c16.73,0,16.73-25.41,0-25.41h-53.31c-16.73,0-16.73,25.41,0,25.41ZM182.73,372.44c0-21.82,2.54-39.54-14.34-56.43-30.92-30.92-83.45-8.57-83.45,34.56v21.87h97.79-.01ZM63.06,537.63h141.55c.89,0,1.71-.36,2.34-.99l.05.05c.57-.63.94-1.46.94-2.34v-133.18c0-1.88-1.46-3.33-3.33-3.33H63.06c-1.88,0-3.33,1.46-3.33,3.33v133.18c0,1.76,1.51,3.27,3.33,3.27h0ZM574.41,316.58v645.16h110.62V316.58h-110.62ZM549,961.74V316.58h-91.35v645.16h91.35ZM710.45,316.58v645.16h110.62l-.05-645.16h-110.58ZM846.49,316.58v645.16h110.62l-.05-645.16h-110.58ZM1254.04,1020.35V306.29l-35.28-41.46-35.28,41.46v714.06h70.57,0Z"/>
</svg>