<?xml version="1.0" encoding="UTF-8"?>
<svg id="Layer_1" data-name="Layer 1" xmlns="http://www.w3.org/2000/svg" viewBox="0 0 1080 1080">
  <defs>
    <style>
      .cls-1 {
        fill: currentColor;
        stroke: currentColor;
      }
    </style>
  </defs>
  <path class="cls-1" d="M290.92,782.33h338.05c8.49.01,15.37-6.86,15.39-15.34,0-.02,0-.04,0-.06l-.37-254.84c-.18-68.79-55.94-124.48-124.72-124.58h-49.01c30.81-29.69,49.05-70.08,50.94-112.83,3.97-58.97-40.61-110-99.59-113.97-3.29-.22-6.6-.29-9.9-.21-59.09-1.47-108.18,45.24-109.65,104.33-.08,3.27-.01,6.55.21,9.81,1.89,42.75,20.12,83.14,50.94,112.83h-45.73c-68.79.08-124.57,55.79-124.72,124.58l-.37,254.89c-.02,8.49,6.84,15.38,15.32,15.41.02,0,.04,0,.06,0h93.15ZM333.04,274.63c-3.64-42.26,27.66-79.47,69.93-83.11,2.91-.25,5.83-.34,8.74-.25,42.4-1.19,77.74,32.22,78.92,74.62.08,2.92,0,5.84-.25,8.74,0,55.76-50.46,112.42-78.67,112.42s-78.67-56.66-78.67-112.42ZM213.52,512.12c.12-51.82,42.13-93.78,93.95-93.85h211.79c51.82.07,93.83,42.03,93.95,93.85l.35,239.44h-63.59v-177.1c0-8.5-6.89-15.39-15.39-15.39s-15.39,6.89-15.39,15.39v177.1h-212.89v-177.1c0-8.5-6.89-15.39-15.39-15.39s-15.39,6.89-15.39,15.39v177.1h-62.36l.35-239.44Z"/>
  <path class="cls-1" d="M977.25,47.67H102.75c-30.41.02-55.06,24.67-55.08,55.08v874.51c.02,30.41,24.67,55.06,55.08,55.08h874.51c30.41-.02,55.06-24.67,55.08-55.08V102.75c-.02-30.41-24.67-55.06-55.08-55.08ZM1001.56,977.25c-.01,13.42-10.89,24.3-24.31,24.31H102.75c-13.42-.01-24.3-10.89-24.31-24.31V102.75c.01-13.42,10.89-24.3,24.31-24.31h874.51c13.42.01,24.3,10.89,24.31,24.31v874.51Z"/>
  <path class="cls-1" d="M947.14,97.72H132.86c-19.39.03-35.11,15.75-35.14,35.14v614.33c.03,19.39,15.75,35.1,35.14,35.12h9.68c8.5,0,15.39-6.89,15.39-15.39s-6.89-15.39-15.39-15.39h-9.68c-2.41,0-4.36-1.94-4.37-4.35V132.86c.01-2.41,1.96-4.36,4.37-4.37h814.28c2.41.01,4.36,1.96,4.37,4.37v614.33c-.01,2.41-1.96,4.35-4.37,4.35h-266.84c-8.5,0-15.39,6.89-15.39,15.39s6.89,15.39,15.39,15.39h266.84c19.39-.02,35.11-15.73,35.14-35.12V132.86c-.03-19.39-15.75-35.11-35.14-35.14Z"/>
  <path class="cls-1" d="M734.04,401.49h145.03c19.8-.01,35.86-16.06,35.88-35.86v-185.14c-.01-19.81-16.06-35.88-35.88-35.9h-145.03c-19.81.02-35.87,16.09-35.88,35.9v185.14c.02,19.8,16.08,35.85,35.88,35.86ZM777.12,370.72v-72.95c.01-1.4,1.15-2.52,2.54-2.52h53.85c1.39.01,2.51,1.13,2.52,2.52v72.95h-58.92ZM791.01,238.55c0-10.46,5.46-16.41,14.93-16.41s14.91,5.99,14.91,16.41c-.91,10.26-6.12,19.66-14.36,25.85-9-5.63-14.73-15.25-15.41-25.85h-.08ZM728.85,180.49c-.01-2.82,2.27-5.12,5.09-5.13,0,0,.01,0,.02,0h145.03c2.82,0,5.11,2.29,5.11,5.11,0,0,0,.01,0,.02v185.14c.01,2.81-2.26,5.1-5.07,5.11-.01,0-.03,0-.04,0h-12.19v-72.97c-.06-14.26-9.2-26.89-22.73-31.41,4.8-8.5,7.46-18.05,7.73-27.82.93-25.24-18.78-46.45-44.02-47.37-25.24-.93-46.45,18.78-47.37,44.02-.04,1.12-.04,2.24,0,3.36.23,9.88,2.88,19.55,7.73,28.17-12.96,4.86-21.56,17.22-21.62,31.06v72.95h-12.31c-2.81.01-5.1-2.26-5.11-5.07,0-.01,0-.03,0-.04l-.27-185.12Z"/>
  <path class="cls-1" d="M164.08,829.25c-8.29,0-15.02,6.72-15.02,15.02s6.72,15.02,15.02,15.02,15.02-6.72,15.02-15.02h0c0-8.29-6.72-15.02-15.02-15.02Z"/>
  <path class="cls-1" d="M258.06,829.25c-8.29.01-15.01,6.74-15,15.04.01,8.29,6.74,15.01,15.04,15,8.29-.01,15-6.73,15-15.02,0-8.29-6.72-15.02-15.02-15.02h-.02Z"/>
  <path class="cls-1" d="M352.05,829.25c-8.29,0-15.02,6.72-15.02,15.02s6.72,15.02,15.02,15.02,15.02-6.72,15.02-15.02h0c0-8.29-6.72-15.02-15.02-15.02Z"/>
  <path class="cls-1" d="M446.03,829.25c-8.29,0-15.02,6.72-15.02,15.02s6.72,15.02,15.02,15.02,15.02-6.72,15.02-15.02h0c0-8.29-6.72-15.02-15.02-15.02Z"/>
  <path class="cls-1" d="M540,829.25c-8.29,0-15.02,6.72-15.02,15.02s6.72,15.02,15.02,15.02,15.02-6.72,15.02-15.02h0c0-8.29-6.72-15.02-15.02-15.02Z"/>
  <path class="cls-1" d="M633.97,829.25c-8.29,0-15.02,6.72-15.02,15.02s6.72,15.02,15.02,15.02,15.02-6.72,15.02-15.02h0c0-8.29-6.72-15.02-15.02-15.02Z"/>
  <path class="cls-1" d="M210.4,878.48c-8.29,0-15.02,6.72-15.02,15.02s6.72,15.02,15.02,15.02,15.02-6.72,15.02-15.02h0c0-8.29-6.72-15.02-15.02-15.02Z"/>
  <path class="cls-1" d="M304.38,878.48c-8.29,0-15.02,6.72-15.02,15.02s6.72,15.02,15.02,15.02,15.02-6.72,15.02-15.02h0c0-8.29-6.72-15.02-15.02-15.02Z"/>
  <path class="cls-1" d="M398.45,878.48c-8.29,0-15.02,6.72-15.02,15.02s6.72,15.02,15.02,15.02,15.02-6.72,15.02-15.02h0c0-8.29-6.72-15.02-15.02-15.02Z"/>
  <path class="cls-1" d="M492.33,878.48c-8.29,0-15.02,6.72-15.02,15.02s6.72,15.02,15.02,15.02,15.02-6.72,15.02-15.02h0c0-8.29-6.72-15.02-15.02-15.02Z"/>
  <path class="cls-1" d="M586.3,878.48c-8.29,0-15.02,6.72-15.02,15.02s6.72,15.02,15.02,15.02,15.02-6.72,15.02-15.02h0c0-8.29-6.72-15.02-15.02-15.02Z"/>
  <path class="cls-1" d="M164.08,927.55c-8.29,0-15.02,6.72-15.02,15.02s6.72,15.02,15.02,15.02,15.02-6.72,15.02-15.02h0c0-8.29-6.72-15.02-15.02-15.02Z"/>
  <path class="cls-1" d="M258.06,927.55c-8.29.01-15.01,6.74-15,15.04.01,8.29,6.74,15.01,15.04,15,8.29-.01,15-6.73,15-15.02,0-8.29-6.72-15.02-15.02-15.02h-.02Z"/>
  <path class="cls-1" d="M352.05,927.55c-8.29,0-15.02,6.72-15.02,15.02s6.72,15.02,15.02,15.02,15.02-6.72,15.02-15.02h0c0-8.29-6.72-15.02-15.02-15.02Z"/>
  <path class="cls-1" d="M446.03,927.55c-8.29,0-15.02,6.72-15.02,15.02s6.72,15.02,15.02,15.02,15.02-6.72,15.02-15.02h0c0-8.29-6.72-15.02-15.02-15.02Z"/>
  <path class="cls-1" d="M540,927.55c-8.29,0-15.02,6.72-15.02,15.02s6.72,15.02,15.02,15.02,15.02-6.72,15.02-15.02h0c0-8.29-6.72-15.02-15.02-15.02Z"/>
  <path class="cls-1" d="M633.97,927.55c-8.29,0-15.02,6.72-15.02,15.02s6.72,15.02,15.02,15.02,15.02-6.72,15.02-15.02h0c0-8.29-6.72-15.02-15.02-15.02Z"/>
  <path class="cls-1" d="M727.95,829.25c-8.29,0-15.02,6.72-15.02,15.02s6.72,15.02,15.02,15.02,15.02-6.72,15.02-15.02h0c0-8.29-6.72-15.02-15.02-15.02Z"/>
  <path class="cls-1" d="M821.94,829.25c-8.29,0-15.02,6.72-15.02,15.02s6.72,15.02,15.02,15.02,15.02-6.72,15.02-15.02h0c-.01-8.29-6.73-15-15.02-15.02Z"/>
  <path class="cls-1" d="M915.92,829.25c-8.29,0-15.02,6.72-15.02,15.02s6.72,15.02,15.02,15.02,15.02-6.72,15.02-15.02h0c0-8.29-6.72-15.02-15.02-15.02Z"/>
  <path class="cls-1" d="M680.29,878.48c-8.29,0-15.02,6.72-15.02,15.02s6.72,15.02,15.02,15.02,15.02-6.72,15.02-15.02h0c0-8.29-6.72-15.02-15.02-15.02Z"/>
  <path class="cls-1" d="M774.27,878.48c-8.29,0-15.02,6.72-15.02,15.02s6.72,15.02,15.02,15.02,15.02-6.72,15.02-15.02h0c0-8.29-6.72-15.02-15.02-15.02Z"/>
  <path class="cls-1" d="M868.22,878.48c-8.29,0-15.02,6.72-15.02,15.02s6.72,15.02,15.02,15.02,15.02-6.72,15.02-15.02h0c0-8.29-6.72-15.02-15.02-15.02Z"/>
  <path class="cls-1" d="M727.95,927.55c-8.29,0-15.02,6.72-15.02,15.02s6.72,15.02,15.02,15.02,15.02-6.72,15.02-15.02h0c0-8.29-6.72-15.02-15.02-15.02Z"/>
  <path class="cls-1" d="M821.94,927.55c-8.29,0-15.02,6.72-15.02,15.02s6.72,15.02,15.02,15.02,15.02-6.72,15.02-15.02h0c-.01-8.29-6.73-15-15.02-15.02Z"/>
  <path class="cls-1" d="M915.92,927.55c-8.29,0-15.02,6.72-15.02,15.02s6.72,15.02,15.02,15.02,15.02-6.72,15.02-15.02h0c0-8.29-6.72-15.02-15.02-15.02Z"/>
  <path class="cls-1" d="M698.16,700.87c0,8.5,6.89,15.39,15.39,15.39h107.49c8.5,0,15.39-6.89,15.39-15.39v-15.22l56.15,28.97c7.56,3.89,16.83.91,20.72-6.65,1.12-2.18,1.7-4.59,1.7-7.04v-81.13c.03-8.47-6.82-15.37-15.3-15.39-2.48,0-4.92.59-7.12,1.73l-56.15,28.97v-15.3c0-8.5-6.89-15.39-15.39-15.39h-107.49c-8.5,0-15.39,6.89-15.39,15.39v81.07ZM884.18,645.05v30.57l-29.62-15.28,29.62-15.28ZM728.93,635.18h76.68v50.3h-76.68v-50.3Z"/>
</svg>