<?xml version="1.0" encoding="UTF-8"?>
<svg id="Layer_1" data-name="Layer 1" xmlns="http://www.w3.org/2000/svg" viewBox="0 0 1080 1080">
  <defs>
    <style>
      .cls-1 {
        fill: currentColor;
        stroke: currentColor;
      }
    </style>
  </defs>
  <ellipse class="cls-1" cx="540" cy="334.81" rx="46.05" ry="44.78"/>
  <path class="cls-1" d="M888.49,32.22c-6.65-7.34-17.97-7.88-25.29-1.27-7.33,6.65-7.9,17.97-1.25,25.31,69.61,76.97,107.96,175.89,107.96,278.54s-38.35,201.55-107.96,278.53c-6.65,7.34-6.07,18.67,1.25,25.31,3.42,3.1,7.74,4.62,12.02,4.62,4.87,0,9.74-1.99,13.27-5.89,75.61-83.58,117.24-191.04,117.24-302.56s-41.63-219-117.24-302.58Z"/>
  <path class="cls-1" d="M110.09,334.81c0-100.37,36.92-197.7,103.95-274.07,6.52-7.43,5.77-18.75-1.67-25.27-7.4-6.54-18.72-5.79-25.27,1.65-72.76,82.9-112.83,188.62-112.83,297.69s40.07,214.79,112.83,297.71c3.55,4.03,8.51,6.09,13.47,6.09,4.19,0,8.42-1.47,11.8-4.46,7.43-6.52,8.19-17.84,1.67-25.27-67.03-76.38-103.95-173.72-103.95-274.07Z"/>
  <path class="cls-1" d="M791.39,113.67c-6.68-7.31-18.04-7.81-25.31-1.13-7.29,6.68-7.81,18-1.13,25.31,49.64,54.28,77.01,124.22,77.01,196.95s-27.35,142.66-77.02,196.95c-6.66,7.29-6.16,18.63,1.13,25.31,3.42,3.15,7.77,4.69,12.09,4.69,4.85,0,9.69-1.95,13.22-5.82,55.71-60.92,86.39-139.45,86.39-221.13.02-81.7-30.65-160.25-86.38-221.13Z"/>
  <path class="cls-1" d="M238.04,334.81c0-71.36,26.37-140.17,74.21-193.71,6.59-7.38,5.96-18.7-1.42-25.29-7.34-6.59-18.7-5.96-25.27,1.42-53.74,60.12-83.33,137.39-83.33,217.59s29.59,157.47,83.33,217.57c3.53,3.96,8.44,5.96,13.35,5.96,4.25,0,8.53-1.5,11.95-4.55,7.36-6.59,7.99-17.91,1.4-25.29-47.86-53.54-74.21-122.31-74.21-193.69Z"/>
  <path class="cls-1" d="M409.13,196c-7.33-6.66-18.65-6.13-25.31,1.18-34.61,37.98-53.65,86.84-53.65,137.62s19.04,99.65,53.65,137.62c3.53,3.89,8.38,5.86,13.24,5.86,4.3,0,8.62-1.54,12.07-4.68,7.31-6.66,7.85-17.98,1.16-25.31-28.57-31.37-44.32-71.69-44.32-113.5s15.75-82.15,44.32-113.5c6.68-7.33,6.16-18.65-1.16-25.31Z"/>
  <path class="cls-1" d="M668.83,194.37c-7.2,6.77-7.58,18.11-.81,25.33,29.65,31.56,45.96,72.44,45.96,115.11s-16.32,83.55-45.95,115.09c-6.79,7.2-6.41,18.54.79,25.33,3.46,3.24,7.85,4.85,12.27,4.85,4.78,0,9.53-1.9,13.06-5.64,35.92-38.21,55.67-87.79,55.67-139.61s-19.78-101.39-55.65-139.63c-6.77-7.24-18.11-7.59-25.35-.82Z"/>
  <path class="cls-1" d="M522.09,413.34v634.02c0,9.89,8.01,17.91,17.91,17.91s17.91-8.02,17.91-17.91V413.34c-5.79,1.27-11.75,2.08-17.91,2.08s-12.13-.81-17.91-2.08Z"/>
</svg>