<?xml version="1.0" encoding="UTF-8"?>
<svg id="Layer_1" data-name="Layer 1" xmlns="http://www.w3.org/2000/svg" xmlns:xlink="http://www.w3.org/1999/xlink" viewBox="0 0 1080 1080">
  <defs>
    <style>
      .cls-1 {
        fill: #FFFFFF;
      }

      .cls-2 {
        fill: none;
        stroke: #FFFFFF;
        stroke-miterlimit: 10;
        stroke-width: 8.7px;
      }

      .cls-3 {
        filter: url(#outer-glow-1);
      }
    </style>
    <filter id="outer-glow-1" x="-111.83" y="243.37" width="1280.64" height="595.2" filterUnits="userSpaceOnUse">
      <feOffset dx="0" dy="0"/>
      <feGaussianBlur result="blur" stdDeviation="67.04"/>
      <feFlood flood-color="#fff" flood-opacity=".75"/>
      <feComposite in2="blur" operator="in"/>
      <feComposite in="SourceGraphic"/>
    </filter>
  </defs>
  <g class="cls-3">
    <path class="cls-1" d="M198.19,637.36c-2.48,0-3.85-1.38-4.4-3.85l-8.81-34.69h-51.76l-8.53,34.69c-.55,2.48-1.93,3.85-4.4,3.85h-26.98c-3.03,0-4.4-1.65-3.58-4.68l45.7-184.18c.55-2.75,2.2-3.85,4.68-3.85h38.27c2.48,0,4.13,1.1,4.68,3.85l45.7,184.18c.83,3.03-.55,4.68-3.85,4.68h-26.7ZM159.09,492l-17.34,74.88h34.69l-17.34-74.88Z"/>
    <path class="cls-1" d="M364.19,444.65c4.4,0,6.06,2.75,4.13,6.61l-70.2,152.24h60.29c2.75,0,4.4,1.38,4.4,4.4v24.78c0,2.75-1.65,4.4-4.4,4.68h-107.92c-4.4,0-6.06-2.75-4.13-6.61l70.2-149.76h-56.71c-2.75,0-4.4-1.65-4.4-4.4v-27.25c0-3.03,1.65-4.4,4.4-4.68h104.34Z"/>
    <path class="cls-1" d="M498.53,444.65c4.41,0,6.06,2.75,4.13,6.61l-70.2,152.24h60.29c2.75,0,4.41,1.38,4.41,4.4v24.78c0,2.75-1.65,4.4-4.41,4.68h-107.92c-4.4,0-6.06-2.75-4.13-6.61l70.2-149.76h-56.71c-2.75,0-4.4-1.65-4.4-4.4v-27.25c0-3.03,1.65-4.4,4.4-4.68h104.34Z"/>
    <path class="cls-1" d="M625.71,637.36c-2.48,0-3.85-1.38-4.4-3.85l-8.81-34.69h-51.76l-8.53,34.69c-.55,2.48-1.93,3.85-4.4,3.85h-26.98c-3.03,0-4.41-1.65-3.58-4.68l45.7-184.18c.55-2.75,2.2-3.85,4.68-3.85h38.27c2.48,0,4.13,1.1,4.68,3.85l45.7,184.18c.83,3.03-.55,4.68-3.85,4.68h-26.7ZM586.62,492l-17.34,74.88h34.69l-17.34-74.88Z"/>
    <path class="cls-1" d="M824.48,444.65c3.58,0,5.51,1.93,5.51,5.51v181.7c0,3.58-1.93,5.51-5.51,5.51h-25.6c-3.58,0-5.51-1.93-5.51-5.51v-108.19h-1.93l-25.88,109.02c-.83,3.03-2.75,4.68-6.06,4.68h-16.24c-3.3,0-5.23-1.65-6.06-4.68l-25.88-109.02h-1.93v108.19c0,3.58-1.93,5.51-5.51,5.51h-25.33c-3.58,0-5.51-1.93-5.51-5.51v-181.7c0-3.58,1.93-5.51,5.51-5.51h36.34c3.3,0,5.23,1.65,6.06,4.68l30.56,122.78,30.56-122.78c.83-3.03,2.75-4.68,6.06-4.68h36.34Z"/>
    <path class="cls-1" d="M927.98,444.65c25.88,0,39.64,13.77,39.64,39.64v18.17c0,2.75-1.38,4.4-4.41,4.4h-27.8c-2.75,0-4.41-1.65-4.41-4.4v-11.56c0-7.16-3.58-11.01-11.01-11.01h-15.14c-6.88,0-11.01,3.85-11.01,11.01v23.4l66.62,21.47c4.68,1.65,7.16,4.96,7.16,10.19v51.76c0,25.88-13.77,39.64-39.64,39.64h-30.83c-25.6,0-39.64-13.76-39.64-39.64v-17.89c0-3.03,1.65-4.41,4.41-4.41h27.8c3.03,0,4.41,1.38,4.41,4.41v11.56c0,7.43,4.13,11.01,11.01,11.01h14.87c7.16,0,11.01-3.58,11.01-11.01v-27.81l-66.07-21.47c-4.96-1.65-7.43-4.96-7.43-10.19v-47.63c0-25.88,14.04-39.64,39.64-39.64h30.83Z"/>
  </g>
  <path class="cls-2" d="M273.22,445c65.27-73.68,160.6-120.12,266.78-120.12s201.51,46.45,266.79,120.13"/>
  <path class="cls-2" d="M893.63,637.37c1.76,14.36,2.67,28.98,2.67,43.81,0,196.78-159.52,356.29-356.29,356.29s-356.29-159.52-356.29-356.29c0-14.72.89-29.23,2.63-43.49"/>
  <path class="cls-2" d="M339.71,444.68c43.88-147.05,180.15-254.25,341.47-254.25,196.78,0,356.29,159.52,356.29,356.29s-159.52,356.29-356.29,356.29c-165.45,0-304.56-112.77-344.66-265.65"/>
  <path class="cls-2" d="M809.13,639.85c-65.12,70.86-158.58,115.27-262.4,115.27s-199.41-45.43-264.62-117.71"/>
  <path class="cls-2" d="M193.13,442.94c-1.78-14.45-2.7-29.17-2.7-44.11,0-196.78,159.52-356.29,356.29-356.29s356.29,159.52,356.29,356.29c0,15.54-.99,30.84-2.92,45.86"/>
  <path class="cls-2" d="M739.68,637.37c-44.53,145.99-180.29,252.2-340.85,252.2-196.78,0-356.29-159.52-356.29-356.29S202.05,176.98,398.83,176.98c166.19,0,305.8,113.78,345.19,267.68"/>
</svg>